<svg width="20" height="20" viewBox="0 0 20 20" fill="none" xmlns="http://www.w3.org/2000/svg">
<path opacity="0.4" d="M18.3334 10C18.3334 5.40421 14.5951 1.66671 10.0001 1.66671C5.40508 1.66671 1.66675 5.40421 1.66675 10C1.66675 14.595 5.40508 18.3334 10.0001 18.3334C14.5951 18.3334 18.3334 14.595 18.3334 10Z" fill="#4851FD"/>
<path d="M13.5173 11.2021C13.5173 11.0429 13.4565 10.8829 13.3348 10.7612L10.4431 7.85539C10.3256 7.73789 10.1665 7.67206 9.99982 7.67206C9.83398 7.67206 9.67482 7.73789 9.55732 7.85539L6.66398 10.7612C6.42065 11.0054 6.42065 11.4004 6.66565 11.6446C6.91065 11.8879 7.30648 11.8871 7.54982 11.6429L9.99982 9.18206L12.4498 11.6429C12.6931 11.8871 13.0881 11.8879 13.3331 11.6446C13.4565 11.5229 13.5173 11.3621 13.5173 11.2021Z" fill="#4851FD"/>
</svg>
