<svg width="64" height="64" viewBox="0 0 64 64" fill="none" xmlns="http://www.w3.org/2000/svg">
<circle cx="32" cy="32" r="32" fill="white"/>
<path d="M44 29.3334H20M44 32.6667V27.7334C44 25.4932 44 24.3731 43.564 23.5175C43.1805 22.7648 42.5686 22.1529 41.816 21.7694C40.9603 21.3334 39.8402 21.3334 37.6 21.3334H26.4C24.1598 21.3334 23.0397 21.3334 22.184 21.7694C21.4314 22.1529 20.8195 22.7648 20.436 23.5175C20 24.3731 20 25.4932 20 27.7334V38.9334C20 41.1736 20 42.2937 20.436 43.1494C20.8195 43.902 21.4314 44.5139 22.184 44.8974C23.0397 45.3334 24.1598 45.3334 26.4 45.3334H32M37.3333 18.6667V24.0001M26.6667 18.6667V24.0001M35.3333 41.3334L38 44.0001L44 38.0001" stroke="#0A2641" stroke-width="2" stroke-linecap="round" stroke-linejoin="round"/>
</svg>
