<svg width="64" height="64" viewBox="0 0 64 64" fill="none" xmlns="http://www.w3.org/2000/svg">
<circle cx="32" cy="32" r="32" fill="white"/>
<path d="M25.803 37.1899L24.5 47L31.3826 42.8704C31.6071 42.7358 31.7193 42.6684 31.8391 42.6421C31.9451 42.6188 32.0549 42.6188 32.1609 42.6421C32.2807 42.6684 32.3929 42.7358 32.6174 42.8704L39.5 47L38.1979 37.1857M38.6388 20.3733C38.8705 20.9336 39.3152 21.3789 39.8751 21.6115L41.8384 22.4247C42.3987 22.6568 42.8439 23.102 43.0759 23.6623C43.308 24.2226 43.308 24.8522 43.0759 25.4125L42.2633 27.3745C42.0311 27.9351 42.0308 28.5653 42.264 29.1256L43.0753 31.087C43.1903 31.3645 43.2496 31.662 43.2496 31.9624C43.2497 32.2629 43.1905 32.5604 43.0755 32.8379C42.9606 33.1155 42.7921 33.3677 42.5796 33.5801C42.3671 33.7925 42.1149 33.9609 41.8373 34.0758L39.8754 34.8885C39.3151 35.1201 38.8698 35.5648 38.6373 36.1247L37.8241 38.0881C37.592 38.6485 37.1468 39.0936 36.5865 39.3257C36.0262 39.5578 35.3967 39.5578 34.8364 39.3257L32.8744 38.5131C32.3141 38.2815 31.6848 38.282 31.1248 38.5144L29.1615 39.3265C28.6015 39.558 27.9725 39.5578 27.4127 39.3259C26.8528 39.094 26.4079 38.6494 26.1757 38.0897L25.3622 36.1257C25.1305 35.5654 24.6859 35.12 24.126 34.8875L22.1626 34.0743C21.6026 33.8423 21.1575 33.3974 20.9254 32.8374C20.6932 32.2774 20.6929 31.6481 20.9245 31.0879L21.7371 29.1259C21.9687 28.5655 21.9682 27.9362 21.7358 27.3762L20.9243 25.4114C20.8093 25.1339 20.75 24.8364 20.75 24.536C20.75 24.2355 20.8091 23.938 20.9241 23.6605C21.039 23.3829 21.2076 23.1307 21.42 22.9183C21.6325 22.7059 21.8847 22.5375 22.1623 22.4226L24.1242 21.6099C24.684 21.3785 25.129 20.9344 25.3617 20.3751L26.175 18.4117C26.407 17.8513 26.8522 17.4062 27.4125 17.1741C27.9728 16.942 28.6024 16.942 29.1627 17.1741L31.1246 17.9868C31.6849 18.2183 32.3142 18.2178 32.8742 17.9854L34.8383 17.1753C35.3986 16.9434 36.028 16.9434 36.5882 17.1755C37.1484 17.4075 37.5935 17.8526 37.8256 18.4127L38.6391 20.3767L38.6388 20.3733Z" stroke="#0A2641" stroke-width="2" stroke-linecap="round" stroke-linejoin="round"/>
</svg>
