<svg width="64" height="64" viewBox="0 0 64 64" fill="none" xmlns="http://www.w3.org/2000/svg">
<circle cx="32" cy="32" r="32" fill="white"/>
<path d="M28 31.3333L30.6667 34L36.6667 28M42.6667 32C42.6667 38.5446 35.5281 43.3045 32.9307 44.8198C32.6355 44.992 32.4879 45.0781 32.2796 45.1228C32.1179 45.1575 31.8821 45.1575 31.7204 45.1228C31.5121 45.0781 31.3645 44.992 31.0694 44.8198C28.472 43.3045 21.3333 38.5446 21.3333 32V25.6235C21.3333 24.5574 21.3333 24.0244 21.5077 23.5663C21.6617 23.1615 21.912 22.8004 22.2369 22.514C22.6047 22.1899 23.1037 22.0028 24.1019 21.6285L31.2509 18.9476C31.5281 18.8436 31.6667 18.7916 31.8093 18.771C31.9358 18.7528 32.0642 18.7528 32.1907 18.771C32.3333 18.7916 32.4719 18.8436 32.7491 18.9476L39.8981 21.6285C40.8963 22.0028 41.3953 22.1899 41.7631 22.514C42.088 22.8004 42.3383 23.1615 42.4923 23.5663C42.6667 24.0244 42.6667 24.5574 42.6667 25.6235V32Z" stroke="#0A2641" stroke-width="2" stroke-linecap="round" stroke-linejoin="round"/>
</svg>
