<svg width="64" height="64" viewBox="0 0 64 64" fill="none" xmlns="http://www.w3.org/2000/svg">
<circle cx="32" cy="32" r="32" fill="white"/>
<path d="M31.3334 22.6667H31.9126C35.9755 22.6667 38.007 22.6667 38.7782 23.3965C39.4448 24.0272 39.7402 24.9565 39.5602 25.8564C39.352 26.8974 37.6935 28.0706 34.3764 30.4168L28.957 34.25C25.6399 36.5963 23.9813 37.7694 23.7731 38.8105C23.5932 39.7104 23.8886 40.6396 24.5552 41.2704C25.3263 42.0001 27.3578 42.0001 31.4208 42.0001H32.6667M26.6667 22.6667C26.6667 24.8759 24.8758 26.6667 22.6667 26.6667C20.4575 26.6667 18.6667 24.8759 18.6667 22.6667C18.6667 20.4576 20.4575 18.6667 22.6667 18.6667C24.8758 18.6667 26.6667 20.4576 26.6667 22.6667ZM45.3334 41.3334C45.3334 43.5426 43.5425 45.3334 41.3334 45.3334C39.1242 45.3334 37.3334 43.5426 37.3334 41.3334C37.3334 39.1243 39.1242 37.3334 41.3334 37.3334C43.5425 37.3334 45.3334 39.1243 45.3334 41.3334Z" stroke="#0A2641" stroke-width="2" stroke-linecap="round" stroke-linejoin="round"/>
</svg>
